<svg width="11" height="11" viewBox="0 0 11 11" fill="none" xmlns="http://www.w3.org/2000/svg">
<path fill-rule="evenodd" clip-rule="evenodd" d="M4.5296 4.91005C4.79502 5.11859 4.95 5.43745 4.95 5.775V9.44686L6.05 9.05982V5.775C6.05 5.43745 6.20498 5.11859 6.4704 4.91005L9.6898 2.38052C9.82251 2.27624 9.9 2.11681 9.9 1.94804V1.1H1.1V1.94804C1.1 2.11682 1.17749 2.27624 1.3102 2.38052L4.5296 4.91005ZM10.3694 3.24547L7.15 5.775V9.44936C7.15 9.68274 7.0027 9.89071 6.78255 9.96818L4.58255 10.7423C4.2248 10.8681 3.85 10.6027 3.85 10.2234V5.775L0.630594 3.24547C0.232465 2.93265 0 2.45436 0 1.94804V1.1C0 0.492487 0.492487 0 1.1 0H9.9C10.5075 0 11 0.492487 11 1.1V1.94804C11 2.45436 10.7675 2.93265 10.3694 3.24547Z" fill="#9DA6BA"/>
</svg>
