<svg width="14" height="14" viewBox="0 0 14 14" xmlns="http://www.w3.org/2000/svg">
<path fill-rule="evenodd" clip-rule="evenodd" d="M2.33333 1.55556H3.88889C4.31844 1.55556 4.66667 1.90378 4.66667 2.33333V3.88889C4.66667 4.31844 4.31844 4.66667 3.88889 4.66667H2.33333C1.90378 4.66667 1.55556 4.31844 1.55556 3.88889V2.33333C1.55556 1.90378 1.90378 1.55556 2.33333 1.55556ZM0 2.33333C0 1.04467 1.04467 0 2.33333 0H3.88889C5.17755 0 6.22222 1.04467 6.22222 2.33333V3.88889C6.22222 5.17755 5.17755 6.22222 3.88889 6.22222H2.33333C1.04467 6.22222 0 5.17755 0 3.88889V2.33333ZM2.33333 9.33334H3.88889C4.31844 9.33334 4.66667 9.68157 4.66667 10.1111V11.6667C4.66667 12.0962 4.31844 12.4445 3.88889 12.4445H2.33333C1.90378 12.4445 1.55556 12.0962 1.55556 11.6667V10.1111C1.55556 9.68157 1.90378 9.33334 2.33333 9.33334ZM0 10.1111C0 8.82246 1.04467 7.77779 2.33333 7.77779H3.88889C5.17755 7.77779 6.22222 8.82246 6.22222 10.1111V11.6667C6.22222 12.9553 5.17755 14 3.88889 14H2.33333C1.04467 14 0 12.9553 0 11.6667V10.1111ZM11.6667 1.55556H10.1111C9.68157 1.55556 9.33334 1.90378 9.33334 2.33333V3.88889C9.33334 4.31844 9.68157 4.66667 10.1111 4.66667H11.6667C12.0962 4.66667 12.4445 4.31844 12.4445 3.88889V2.33333C12.4445 1.90378 12.0962 1.55556 11.6667 1.55556ZM10.1111 0C8.82246 0 7.77779 1.04467 7.77779 2.33333V3.88889C7.77779 5.17755 8.82246 6.22222 10.1111 6.22222H11.6667C12.9553 6.22222 14 5.17755 14 3.88889V2.33333C14 1.04467 12.9553 0 11.6667 0H10.1111ZM10.1111 9.33334H11.6667C12.0962 9.33334 12.4445 9.68157 12.4445 10.1111V11.6667C12.4445 12.0962 12.0962 12.4445 11.6667 12.4445H10.1111C9.68157 12.4445 9.33334 12.0962 9.33334 11.6667V10.1111C9.33334 9.68157 9.68157 9.33334 10.1111 9.33334ZM7.77779 10.1111C7.77779 8.82246 8.82246 7.77779 10.1111 7.77779H11.6667C12.9553 7.77779 14 8.82246 14 10.1111V11.6667C14 12.9553 12.9553 14 11.6667 14H10.1111C8.82246 14 7.77779 12.9553 7.77779 11.6667V10.1111Z" fill="#6F767E"/>
</svg>
