<svg width="12" height="12" viewBox="0 0 12 12" fill="none" xmlns="http://www.w3.org/2000/svg">
<path fill-rule="evenodd" clip-rule="evenodd" d="M0 1C0 0.447715 0.383756 0 0.857143 0H11.1429C11.6162 0 12 0.447715 12 1C12 1.55228 11.6162 2 11.1429 2H0.857143C0.383756 2 0 1.55228 0 1ZM0 6C0 5.44772 0.383756 5 0.857143 5H11.1429C11.6162 5 12 5.44772 12 6C12 6.55228 11.6162 7 11.1429 7H0.857143C0.383756 7 0 6.55228 0 6ZM0.857143 10C0.383756 10 0 10.4477 0 11C0 11.5523 0.383756 12 0.857143 12H11.1429C11.6162 12 12 11.5523 12 11C12 10.4477 11.6162 10 11.1429 10H0.857143Z" fill="#9DA6BA"/>
</svg>
